<svg version="1.1" xmlns="http://www.w3.org/2000/svg" style="display: block;" viewBox="0 0 2048 2048" width="1024" height="1024" preserveAspectRatio="none">
<path transform="translate(0,0)" fill="rgb(15,15,15)" d="M 1011.35 479.132 L 1036.23 478.935 C 1040.75 488.808 1046.93 510.044 1051.13 521.708 C 1061.33 550.067 1071.36 578.629 1080.98 607.19 L 1129.76 749.571 C 1143.19 788.765 1155.92 827.221 1170.39 866.189 C 1239.87 793.945 1308.67 721.054 1376.79 647.527 C 1387.04 647.107 1395.23 647.977 1406.55 647.223 C 1404.37 662.54 1399.88 681.695 1396.72 697.08 L 1380.71 776.804 C 1359.6 880.73 1339.15 984.787 1319.35 1088.97 C 1286.3 1089.97 1252.18 1089.25 1218.97 1089.22 L 1036.75 1088.96 L 728.301 1089.04 C 705.611 967.596 679.553 846.489 656.254 725.148 C 651.289 699.285 646.266 673.149 640.796 647.399 C 651.01 647.729 661.229 647.861 671.448 647.797 C 675.51 653.702 688.859 667.506 694.228 673.168 L 732.808 713.849 L 877.286 866.882 C 923.554 738.541 965.215 607.379 1011.35 479.132 z M 909.693 900.301 C 919.378 910.862 1020.67 1019.14 1023.77 1020.21 C 1028.58 1015.71 1032.94 1010.97 1037.53 1006.28 C 1071.38 971.678 1103.74 935.477 1137.89 901.182 C 1112.08 830.116 1089.12 757.459 1064.08 686.235 C 1060.02 674.693 1026.68 575.395 1023.63 571.786 C 984.043 680.845 949.02 792.002 909.693 900.301 z M 763.224 1047.88 C 780.426 1047.85 797.628 1047.73 814.83 1047.53 L 826.573 1014.76 C 838.316 980.834 849.175 944.184 861.634 910.895 C 825.307 871.736 788.681 832.855 751.758 794.257 C 736.363 778.146 717.997 757.59 702.174 742.737 C 706.681 772.422 714.574 807.39 720.52 837.166 L 763.224 1047.88 z M 1151.59 946.554 C 1136.6 961.872 1121.68 978.109 1106.96 993.777 C 1091.28 1010.47 1072.33 1029.34 1057.95 1046.96 L 1097.74 1046.99 L 1188.42 1046.97 C 1183.1 1034.37 1155.39 949.552 1151.59 946.554 z M 1231.92 1047.67 C 1249.37 1047.86 1266.82 1047.71 1284.26 1047.21 C 1289 1019.08 1346.19 753.789 1344.25 743.879 C 1291.45 799.075 1238.59 856.045 1185.51 910.573 C 1197.47 944.854 1209.02 982.104 1221.41 1015.75 C 1224.76 1025.91 1228.92 1037.55 1231.92 1047.67 z M 894.344 945.42 C 882.426 979.23 870.788 1013.14 859.431 1047.14 C 891.746 1046.79 924.513 1047.4 956.704 1046.65 L 990.216 1047 C 968.834 1022.23 943.885 997.467 921.551 973.32 C 918.144 969.636 897.541 947.824 894.344 945.42 z"/>
<path transform="translate(0,0)" fill="rgb(15,15,15)" d="M 788.279 1373.72 C 839.92 1368.01 886.5 1405.02 892.601 1456.62 C 898.703 1508.21 862.041 1555.07 810.492 1561.56 C 758.394 1568.12 710.928 1530.98 704.761 1478.83 C 698.594 1426.68 736.089 1379.5 788.279 1373.72 z M 807.875 1538.4 C 814.848 1536.99 822.133 1535.67 828.43 1532.32 C 893.034 1497.94 869.383 1389.83 791.401 1397.23 C 785.535 1398.29 777.911 1399.5 772.549 1402 C 704.051 1433.88 724.336 1547.68 807.875 1538.4 z"/>
<path transform="translate(0,0)" fill="rgb(15,15,15)" d="M 556.058 1304.84 C 565.504 1305.23 576.436 1305.02 586 1305.07 C 592.1 1323.38 603.605 1349.49 611.043 1367.85 L 665.399 1501.15 C 672.595 1518.8 681.592 1538.49 688.086 1555.97 L 658.422 1555.9 C 651.244 1536.46 642.706 1517.54 635.585 1498 L 579.75 1497.86 C 553.879 1497.84 528.008 1497.65 502.139 1497.28 C 496.359 1513.49 484.831 1538.78 477.841 1555.85 C 468.995 1554.75 458.003 1555.06 448.932 1555.07 L 556.058 1304.84 z M 512.85 1471.87 C 530.482 1471.64 548.116 1471.56 565.75 1471.64 C 583.501 1471.66 607.557 1470.96 624.795 1471.96 C 619.594 1459 572.739 1339.17 570.375 1336.68 L 512.85 1471.87 z"/>
<path transform="translate(0,0)" fill="rgb(15,15,15)" d="M 1499.64 1370.03 C 1507.52 1370.02 1515.39 1370.24 1523.26 1370.69 C 1528.68 1386.45 1538.01 1406.7 1544.21 1422.65 C 1562.17 1468.8 1582.65 1514.55 1600.88 1560.51 L 1577.82 1560.69 C 1571.61 1546.24 1565.86 1531.6 1560.56 1516.79 C 1553.39 1516.07 1534.47 1516.57 1525.25 1516.15 C 1504.98 1516.03 1479.57 1515.45 1459.71 1516.74 C 1453.55 1531.16 1447.42 1545.26 1442.04 1560.01 L 1420.02 1560.07 C 1425.65 1544.1 1432.53 1530.09 1438.57 1514.7 C 1457.49 1466.5 1481.43 1418.18 1499.64 1370.03 z M 1468.11 1498 C 1482.24 1497.74 1496.37 1497.72 1510.5 1497.93 L 1553.07 1497.91 C 1539.87 1468.38 1528.79 1438.02 1516.78 1408 C 1515.06 1403.72 1513.4 1398.51 1511.14 1394.54 C 1496.36 1428.85 1482.02 1463.33 1468.11 1498 z"/>
<path transform="translate(0,0)" fill="rgb(15,15,15)" d="M 1009.42 1374.3 C 1062.11 1371.32 1092.3 1391.97 1105.86 1443.07 L 1078.84 1443.09 C 1073.73 1426.19 1065.02 1410.53 1047.98 1403.55 C 1013.36 1389.36 977.271 1402.19 962.222 1436.42 C 953.684 1456.24 953.235 1478.62 960.971 1498.78 C 975.365 1535.44 1014.54 1548.32 1049.53 1533.15 C 1066.79 1523.66 1072.22 1512.39 1078.33 1495.05 C 1087.3 1494.95 1096.57 1495.13 1105.57 1495.19 C 1095.63 1532.88 1075.51 1554.02 1036.05 1561.46 C 986.42 1570.81 938.166 1538.03 931.004 1487.34 C 922.811 1429.33 950.275 1384.32 1009.42 1374.3 z"/>
<path transform="translate(0,0)" fill="rgb(15,15,15)" d="M 1386.75 1381.15 C 1395.04 1380.9 1405.18 1381.46 1413.6 1381.71 C 1408.44 1393.34 1404.29 1404.7 1398.76 1416.63 C 1380.35 1462.62 1355.91 1513.31 1336.12 1559.85 C 1327.32 1559.74 1318.19 1559.9 1309.35 1559.93 L 1235.81 1381.71 L 1256.01 1381.55 C 1259.47 1381.31 1260.24 1381.18 1263.77 1381.79 C 1269.75 1393.47 1278.88 1419.08 1284.05 1432.1 L 1323.36 1531.11 C 1343.9 1482.74 1367.94 1429.68 1386.75 1381.15 z"/>
<path transform="translate(0,0)" fill="rgb(15,15,15)" d="M 1178.68 1188.74 C 1179.03 1189.11 1190.71 1218.96 1196.07 1226.63 C 1207.25 1242.59 1224.33 1253.44 1243.53 1256.79 C 1204.53 1272.73 1191.01 1284.27 1178.75 1326.45 C 1173.24 1315.34 1171.43 1305.25 1163.54 1293.22 C 1149.48 1271.79 1136.28 1263.32 1111.95 1257.57 C 1155.46 1247.45 1164.2 1228.28 1178.68 1188.74 z M 1153.06 1257.51 C 1157.84 1260.77 1159.82 1262.07 1164.07 1265.93 C 1167.94 1269.44 1176.43 1281.68 1179.44 1283.58 C 1186.06 1268.76 1191 1265.86 1204.86 1258.38 C 1192 1249.97 1186.4 1244.55 1178.7 1230.97 C 1178.64 1230.91 1178.58 1230.85 1178.53 1230.79 C 1169.71 1244.35 1166.95 1248.63 1153.06 1257.51 z"/>
<path transform="translate(0,0)" fill="rgb(15,15,15)" d="M 1163.92 1381.91 C 1172.52 1382.03 1181.12 1382 1189.72 1381.83 C 1191.08 1403.14 1190.22 1422.74 1190.17 1444.1 L 1189.49 1556.55 L 1189.14 1558.03 C 1185.97 1559.84 1168.65 1559.2 1164.24 1559.17 L 1163.92 1381.91 z"/>
</svg>